{"title":"The Pebble and the Penguin (1995) DVDRip Mkv ","uid":9363459,"size":836074925,"categoryP":"video","categoryS":"movies","magnet":"?xt=urn:btih:b5df8918b538bd9f9ba3755b17dbaeaf29fe4ce4&amp;dn=The+Pebble+and+the+Penguin+%281995%29+DVDRip+Mkv+&amp;tr=udp%3A%2F%2Ftracker.openbittorrent.com%3A80&amp;tr=udp%3A%2F%2Fopen.demonii.com%3A1337&amp;tr=udp%3A%2F%2Ftracker.coppersurfer.tk%3A6969&amp;tr=udp%3A%2F%2Fexodus.desync.com%3A6969","seeders":1,"leechers":0,"uploader":"7","files":-1,"time":1387373362,"description":"Released\t1995\nGenre\t, Animation, Adventure, Comedy\nActors\tMartin Short, James Belushi, Annie Golden\nPlot\tA lovable but introverted penguin named Hubie plans to present his betrothal pebble to the bird of his dreams.\nIMDB link\t\n &lt;a href=&quot;\nhttp://www.imdb.com/title/tt0114108/&quot; rel=&quot;nofollow&quot; target=&quot;_NEW&quot;&gt;\nhttp://www.imdb.com/title/tt0114108/&lt;/a&gt;\n\nGeneral\nComplete name                            : The Pebble and the Penguin (1995).mkv\nFormat                                   : Matroska\nFormat version                           : Version 2\nFile size                                : 797 MiB\nDuration                                 : 1h 14mn\nOverall bit rate                         : 1 505 Kbps\nEncoded date                             : UTC 2013-12-03 05:23:47\nWriting application                      : mkvmerge v6.5.0 ('Isn't she lovely') built on Oct 20 2013 12:50:05\nWriting library                          : libebml v1.3.0 + libmatroska v1.4.1\n\nVideo\nID                                       : 1\nFormat                                   : AVC\nFormat/Info                              : Advanced Video Codec\nFormat profile                           : &lt;a class=&quot;__cf_email__&quot; href=&quot;/cdn-cgi/l/email-protection&quot; data-cfemail=&quot;a7efcec0cfe7eb938996&quot;&gt;[email&amp;#160;protected]&lt;/a&gt;&lt;script data-cfhash='f9e31' type=&quot;text/javascript&quot;&gt;\n/* &lt;![CDATA[ */!function(){try{var t=&quot;currentScript&quot;in document?document.currentScript:function(){for(var t=document.getElementsByTagName(&quot;script&quot;),e=t.length;e--;)if(t[e].getAttribute(&quot;data-cfhash&quot;))return t[e]}();if(t&amp;&amp;t.previousSibling){var e,r,n,i,c=t.previousSibling,a=c.getAttribute(&quot;data-cfemail&quot;);if(a){for(e=&quot;&quot;,r=parseInt(a.substr(0,2),16),n=2;a.length-n;n+=2)i=parseInt(a.substr(n,2),16)^r,e+=String.fromCharCode(i);e=document.createTextNode(e),c.parentNode.replaceChild(e,c)}t.parentNode.removeChild(t);}}catch(u){}}()/* ]]&gt; */&lt;/script&gt;\nFormat settings, CABAC                   : Yes\nFormat settings, ReFrames                : 4 frames\nCodec ID                                 : V_MPEG4/ISO/AVC\nDuration                                 : 1h 14mn\nBit rate                                 : 1 378 Kbps\nWidth                                    : 1 280 pixels\nHeight                                   : 688 pixels\nDisplay aspect ratio                     : 1.85:1\nFrame rate mode                          : Constant\nFrame rate                               : 23.976 fps\nColor space                              : YUV\nChroma subsampling                       : 4:2:0\nBit depth                                : 8 bits\nScan type                                : Progressive\nBits/(Pixel*Frame)                       : 0.065\nStream size                              : 714 MiB (90%)\nWriting library                          : x264 core 138 r2358 9e941d1\nDefault                                  : Yes\nForced                                   : No\n\nAudio\nID                                       : 2\nFormat                                   : AC-3\nFormat/Info                              : Audio Coding 3\nMode extension                           : CM (complete main)\nFormat settings, Endianness              : Big\nCodec ID                                 : A_AC3\nDuration                                 : 1h 14mn\nBit rate mode                            : Constant\nBit rate                                 : 128 Kbps\nChannel(s)                               : 2 channels\nChannel positions                        : Front: L R\nSampling rate                            : 48.0 KHz\nBit depth                                : 16 bits\nCompression mode                         : Lossy\nStream size                              : 67.8 MiB (9%)\nDefault                                  : Yes\nForced                                   : No\n &lt;a href=&quot;\nhttp://lookpic.com/O/i2/885/WTMHPzqu.jpeg&quot; rel=&quot;nofollow&quot; target=&quot;_NEW&quot;&gt;\nhttp://lookpic.com/O/i2/885/WTMHPzqu.jpeg&lt;/a&gt;","torrent":{"xt":"urn:btih:b5df8918b538bd9f9ba3755b17dbaeaf29fe4ce4","amp;dn":"The+Pebble+and+the+Penguin+%281995%29+DVDRip+Mkv+","amp;tr":["udp%3A%2F%2Ftracker.openbittorrent.com%3A80","udp%3A%2F%2Fopen.demonii.com%3A1337","udp%3A%2F%2Ftracker.coppersurfer.tk%3A6969","udp%3A%2F%2Fexodus.desync.com%3A6969"],"infoHash":"b5df8918b538bd9f9ba3755b17dbaeaf29fe4ce4","infoHashBuffer":{"type":"Buffer","data":[181,223,137,24,181,56,189,159,155,163,117,91,23,219,174,175,41,254,76,228]},"announce":[],"urlList":[]}}